HIERARCHY
ROOT Hips
{
	OFFSET 0.00 0.00 0.00
	CHANNELS 6 Xposition Yposition Zposition Yrotation Xrotation Zrotation
	JOINT LHipJoint
	{
		OFFSET	0.0000	0.0000	0.0000
		CHANNELS 3 Yrotation Xrotation Zrotation
		JOINT LeftUpLeg
		{
			OFFSET	1.0138	-0.0809	-0.0827
			CHANNELS 3 Yrotation Xrotation Zrotation
			JOINT LeftLeg
			{
				OFFSET	0.4110	-3.9095	0.3245
				CHANNELS 3 Yrotation Xrotation Zrotation
				JOINT LeftFoot
				{
					OFFSET	0.3810	-4.0555	-0.1470
					CHANNELS 3 Yrotation Xrotation Zrotation
					JOINT LeftToeBase
					{
						OFFSET	0.1396	-0.4462	1.3079
						CHANNELS 3 Yrotation Xrotation Zrotation
						End Site
						{
							OFFSET 0.0161 -0.0248 0.1809
						}
					}
				}
			}
		}
	}
	JOINT LowerBack
	{
		OFFSET	0.0000	0.7977	-0.3873
		CHANNELS 3 Yrotation Xrotation Zrotation
		JOINT Spine
		{
			OFFSET	0.0000	1.4131	0.1715
			CHANNELS 3 Yrotation Xrotation Zrotation
			JOINT Spine1
			{
				OFFSET	0.0000	1.4392	-0.1032
				CHANNELS 3 Yrotation Xrotation Zrotation
				JOINT LeftShoulder
				{
					OFFSET	0.2274	1.0382	0.4032
					CHANNELS 3 Yrotation Xrotation Zrotation
					JOINT LeftArm
					{
						OFFSET	1.4730	-0.2267	-0.0231
						CHANNELS 3 Yrotation Xrotation Zrotation
						JOINT LeftForeArm
						{
							OFFSET	1.6131	-1.8059	0.0081
							CHANNELS 3 Yrotation Xrotation Zrotation
							JOINT LeftHand
							{
								OFFSET	1.2197	-1.2423	1.6317
								CHANNELS 3 Yrotation Xrotation Zrotation
								JOINT LThumb
								{
									OFFSET	0.0109	-0.0753	0.4387
									CHANNELS 3 Yrotation Xrotation Zrotation
									End Site
									{
										OFFSET -0.2090 -0.0868 0.2097
									}
								}
								JOINT LeftFingerBase
								{
									OFFSET	0.1071	-0.1567	0.2607
									CHANNELS 3 Yrotation Xrotation Zrotation
									JOINT LeftHandFinger1
									{
										OFFSET	0.1706	-0.2492	0.6830
										CHANNELS 3 Yrotation Xrotation Zrotation
										End Site
										{
											OFFSET 0.0335 -0.1507 0.2071
										}
									}
								}
							}
						}
					}
				}
				JOINT Neck
				{
					OFFSET	0.0000	1.7498	0.2381
					CHANNELS 3 Yrotation Xrotation Zrotation
					JOINT Neck1
					{
						OFFSET	0.0000	0.5043	0.1959
						CHANNELS 3 Yrotation Xrotation Zrotation
						JOINT Head
						{
							OFFSET	0.0000	0.5044	0.1959
							CHANNELS 3 Yrotation Xrotation Zrotation
							End Site
							{
								OFFSET 0.0000 1.4798 -0.0693
							}
						}
					}
				}
				JOINT RightShoulder
				{
					OFFSET	-0.2274	1.0382	0.4032
					CHANNELS 3 Yrotation Xrotation Zrotation
					JOINT RightArm
					{
						OFFSET	-1.4730	-0.2267	-0.0231
						CHANNELS 3 Yrotation Xrotation Zrotation
						JOINT RightForeArm
						{
							OFFSET	-1.6131	-1.8059	0.0081
							CHANNELS 3 Yrotation Xrotation Zrotation
							JOINT RightHand
							{
								OFFSET	-1.2197	-1.2423	1.6317
								CHANNELS 3 Yrotation Xrotation Zrotation
								JOINT RThumb
								{
									OFFSET	-0.0109	-0.0753	0.4387
									CHANNELS 3 Yrotation Xrotation Zrotation
									End Site
									{
										OFFSET 0.2090 -0.0868 0.2097
									}
								}
								JOINT RightFingerBase
								{
									OFFSET	-0.1071	-0.1567	0.2607
									CHANNELS 3 Yrotation Xrotation Zrotation
									JOINT RightHandFinger1
									{
										OFFSET	-0.1706	-0.2492	0.6830
										CHANNELS 3 Yrotation Xrotation Zrotation
										End Site
										{
											OFFSET -0.0335 -0.1507 0.2071
										}
									}
								}
							}
						}
					}
				}
			}
		}
	}
	JOINT RHipJoint
	{
		OFFSET	0.0000	0.0000	0.0000
		CHANNELS 3 Yrotation Xrotation Zrotation
		JOINT RightUpLeg
		{
			OFFSET	-1.0138	-0.0809	-0.0827
			CHANNELS 3 Yrotation Xrotation Zrotation
			JOINT RightLeg
			{
				OFFSET	-0.4110	-3.9095	0.3245
				CHANNELS 3 Yrotation Xrotation Zrotation
				JOINT RightFoot
				{
					OFFSET	-0.3810	-4.0555	-0.1470
					CHANNELS 3 Yrotation Xrotation Zrotation
					JOINT RightToeBase
					{
						OFFSET	-0.1396	-0.4462	1.3079
						CHANNELS 3 Yrotation Xrotation Zrotation
						End Site
						{
							OFFSET -0.0161 -0.0248 0.1809
						}
					}
				}
			}
		}
	}
}
MOTION
Frames: 16
Frame Time: 0.0333333
0.0084 8.5922 0.0460 1.9432 1.9389 0.0209 0.0000 -0.0000 0.0000 10.4228 -24.6435 -5.9329 0.0555 57.0695 -3.0874 -0.2065 -3.2124 4.4503 0.0000 -8.2041 -0.0000 0.0000 -0.0000 0.0000 -2.0739 3.7030 1.1006 -4.1793 7.3684 0.6920 -9.1694 0.3479 -5.0174 -25.5700 4.3644 -21.6497 21.9293 23.7735 2.4783 6.1091 14.5898 0.4962 26.2701 -6.4865 19.7698 -8.4604 15.6006 -11.6202 -5.1180 -5.3799 -1.4223 2.1292 -0.4764 -0.2552 2.1393 -0.4606 -0.2338 2.3866 -2.7327 -1.8760 4.1354 0.5511 6.3376 28.3671 -2.0600 10.7355 -12.8693 15.1410 0.3878 -7.5037 6.8318 0.1051 -18.8310 -0.9759 -23.7266 10.8539 16.9122 13.8865 10.5567 -0.3822 5.6574 0.0000 -0.0000 0.0000 -7.4781 -10.0852 8.9676 0.8305 19.8052 -3.1256 1.2108 -12.1657 -5.6981 0.0000 -4.9718 -0.0000 
0.0227 8.6624 0.0271 1.3747 2.5361 0.1314 0.0000 -0.0000 0.0000 10.4914 -27.0285 -7.4121 1.9989 42.8103 -2.1826 -0.0290 -2.8094 2.7405 -0.0000 -6.3944 0.0000 0.0000 -0.0000 0.0000 -1.2927 3.4051 0.7433 -2.7826 6.7774 -0.0035 -8.1950 0.3967 -4.8271 -22.5705 7.3686 -24.1214 21.9448 23.7870 2.4842 3.3575 15.2694 -2.1803 26.2701 -6.4865 19.7698 -8.0702 14.5584 -11.0038 -5.1253 -5.3717 -1.4281 1.8861 -0.4326 -0.3791 1.8889 -0.4302 -0.3284 1.4178 -2.4082 -1.7003 4.4497 0.5365 6.0839 30.3935 -2.5910 8.5706 -10.8955 13.0975 0.8313 -8.0027 10.1656 1.1760 -18.8309 -0.9758 -23.7266 11.1616 17.0399 14.1784 10.5600 -0.3791 5.6602 0.0000 -0.0000 0.0000 -8.0966 -4.0590 8.7418 2.9215 14.2773 -3.4942 1.2968 -13.6822 -5.2819 0.0000 -4.6716 -0.0000 
0.0421 8.6585 0.0057 0.7326 3.1825 -0.0177 0.0000 -0.0000 0.0000 9.7227 -26.5903 -8.2322 3.3024 23.0726 -1.6475 0.2571 0.2980 1.6631 0.0000 -5.3763 0.0000 0.0000 -0.0000 0.0000 -0.5345 3.1176 0.2301 -1.2574 6.2269 -0.2560 -7.2934 0.4367 -4.7114 -19.5649 10.2315 -26.2935 22.0282 23.8600 2.5165 1.2056 14.7750 -3.5913 26.2701 -6.4865 19.7698 -7.9164 14.5611 -10.8801 -5.1329 -5.3631 -1.4342 1.5529 -0.5247 -0.2628 1.5651 -0.5169 -0.2604 0.7264 -2.3147 -1.7199 4.7877 0.5278 5.3362 32.0236 -2.9432 6.0866 -7.9122 9.9221 1.3681 -8.2162 13.8851 1.7753 -18.8309 -0.9759 -23.7266 12.2658 17.5062 15.2355 10.5099 -0.4257 5.6193 0.0000 -0.0000 0.0000 -9.6303 0.5743 8.1551 5.3943 11.2480 -2.9599 1.6466 -15.6236 -6.2188 0.0000 -4.4869 -0.0000 
0.0618 8.5595 -0.0092 -0.4330 3.6295 -1.2891 0.0000 -0.0000 0.0000 8.1168 -29.8288 -7.3820 4.3066 11.1766 -0.3851 0.3502 0.7953 0.0024 0.0000 -5.8611 0.0000 0.0000 -0.0000 0.0000 0.3889 2.8958 0.0408 0.6981 5.7908 0.1456 -6.8049 0.4606 -4.5567 -16.6167 12.7938 -28.2961 22.4127 24.1953 2.6664 0.1979 13.3997 -4.4836 26.2701 -6.4865 19.7698 -7.7410 14.5636 -10.7395 -5.1328 -5.3633 -1.4341 1.1090 -0.6284 0.3262 1.1528 -0.6069 0.1640 0.3637 -2.5971 -2.4398 5.2352 0.5209 4.5019 33.3142 -3.4704 3.0505 -5.9437 7.7798 1.6316 -6.8799 15.0239 2.3854 -18.8310 -0.9759 -23.7266 13.3282 17.8983 16.2502 10.5223 -0.4142 5.6294 0.0000 -0.0000 0.0000 -11.3683 3.0626 7.9122 4.9959 12.6873 -2.0219 5.0966 -18.5332 -7.0779 0.0000 -4.5446 0.0000 
0.0799 8.3929 -0.0010 -1.9926 3.7840 -2.7088 0.0000 -0.0000 0.0000 5.8360 -34.7763 -5.7977 4.4701 5.4966 2.7158 0.1718 -2.8957 -0.7992 0.0000 -7.6823 0.0000 0.0000 -0.0000 0.0000 1.3164 2.6807 0.0355 2.5788 5.3458 0.5475 -6.1980 0.4950 -4.0808 -13.8942 15.0721 -30.1079 23.0572 24.7512 2.9224 -0.4707 12.7370 -5.4977 26.2701 -6.4865 19.7698 -8.3503 15.4493 -11.4879 -5.1493 -5.3447 -1.4472 0.6430 -0.5916 0.9540 0.7080 -0.5944 0.6677 0.5276 -3.3238 -3.1499 6.2020 0.4892 4.3145 34.7579 -3.5468 -0.7245 -5.1039 6.8569 1.7216 -6.2545 13.4663 2.2123 -18.8310 -0.9759 -23.7266 13.8307 18.0599 16.7284 10.4964 -0.4383 5.6082 0.0000 -0.0000 0.0000 -12.4779 5.8242 7.5001 2.0859 14.2374 -2.0147 10.7839 -21.3144 -7.7483 -0.0000 -5.0308 0.0000 
0.1029 8.2104 0.0091 -3.1725 3.9428 -3.3735 0.0000 -0.0000 0.0000 4.4375 -40.0771 -4.6607 4.1480 6.2402 4.5836 -0.0292 -9.5059 0.4054 -0.0000 -8.0978 0.0000 0.0000 -0.0000 0.0000 2.0580 2.4690 0.0853 3.9401 4.9154 0.6033 -5.2814 0.5327 -3.6513 -11.9624 16.3421 -31.2435 24.3785 25.8676 3.4650 -1.5630 13.1013 -5.8986 26.2701 -6.4865 19.7698 -10.4443 18.7653 -13.8315 -5.1798 -5.3105 -1.4715 0.2372 -0.5805 1.1612 0.3074 -0.6058 0.8351 0.8773 -4.0237 -3.3363 7.4432 0.4408 4.4284 35.8517 -3.1741 -4.3468 -4.9577 6.6957 1.7359 -6.6483 11.8330 1.2752 -18.8309 -0.9759 -23.7266 14.0080 18.1863 16.9134 10.4699 -0.4629 5.5866 0.0000 -0.0000 0.0000 -13.1335 9.0121 6.4634 0.1534 15.0148 -2.4987 14.7416 -24.7163 -7.8822 -0.0000 -5.9967 0.0000 
0.1326 8.0678 -0.0038 -3.8246 3.9536 -3.3501 0.0000 -0.0000 0.0000 5.7774 -40.6984 -5.1463 2.7816 6.9753 3.4939 -0.1789 -8.0447 0.6261 0.0000 -8.1660 0.0000 0.0000 -0.0000 0.0000 2.7454 2.4626 -0.0052 5.2032 4.9065 0.3386 -4.8364 0.5445 -3.7764 -10.6932 16.0857 -31.0819 26.3279 27.4571 4.3078 -2.5770 14.7329 -4.9450 26.2701 -6.4865 19.7698 -11.2623 20.4579 -14.7415 -5.1823 -5.3077 -1.4735 -0.1150 -0.7395 1.0535 -0.0473 -0.7669 0.7287 0.8061 -4.6229 -3.1879 8.0702 0.4314 4.0892 35.8350 -3.5308 -6.1891 -5.7555 7.5734 1.6529 -6.5833 9.5104 -0.4575 -18.8309 -0.9759 -23.7266 14.0967 18.2128 16.9978 10.5191 -0.4172 5.6268 0.0000 -0.0000 0.0000 -13.7735 12.5362 5.0542 -0.7524 14.7890 -3.4432 16.6798 -26.3229 -6.9719 -0.0000 -7.5766 0.0000 
0.1741 7.9641 0.0329 -3.5906 3.0149 -2.5219 0.0000 -0.0000 0.0000 6.7918 -37.2970 -6.4555 -0.4216 7.9348 1.8546 0.2925 1.4854 2.4093 -0.0000 -9.5033 0.0000 0.0000 -0.0000 0.0000 3.2204 2.6789 -0.4104 6.0760 5.3636 -0.5281 -5.2765 0.5232 -4.2568 -10.3375 15.5578 -29.9838 27.5734 28.4363 4.8715 -1.1870 17.3079 -1.6875 26.2701 -6.4865 19.7698 -11.2825 20.7229 -14.7799 -5.1701 -5.3214 -1.4638 -0.3985 -0.8170 0.7731 -0.3451 -0.8163 0.5110 0.1467 -5.1300 -2.4582 7.9615 0.4523 3.6533 34.7039 -3.8733 -5.5071 -7.0201 8.9553 1.4965 -6.2158 6.6419 -2.6336 -18.8309 -0.9759 -23.7266 13.2818 17.8557 16.1997 10.5198 -0.4165 5.6273 0.0000 -0.0000 0.0000 -15.1912 17.5104 2.9158 -0.1262 13.8734 -4.8267 15.6998 -25.0107 -4.9803 -0.0000 -10.8115 -0.0000 
0.2318 7.9247 0.1207 -2.9847 2.2820 -1.9093 0.0000 -0.0000 0.0000 6.5158 -33.7451 -7.4580 -2.6100 9.1548 1.0868 1.2996 11.4938 6.2381 0.0000 -10.4441 -0.0000 0.0000 -0.0000 0.0000 3.3524 2.4245 -0.6891 6.3428 4.8698 -1.0829 -5.5868 0.5073 -4.5224 -11.2505 15.3002 -28.7633 27.4669 28.3537 4.8225 1.2416 20.4086 1.8440 26.2701 -6.4865 19.7698 -11.3262 20.8946 -14.8331 -5.1576 -5.3354 -1.4538 -0.4797 -0.4555 -0.0860 -0.4731 -0.4940 -0.1177 -0.8005 -4.8475 -0.6676 7.3703 0.4720 3.5951 33.6545 -3.0741 -2.8114 -8.7985 10.8753 1.2257 -5.1057 3.5670 -4.3304 -18.8309 -0.9759 -23.7266 11.2841 17.0877 14.2941 10.4982 -0.4366 5.6097 0.0000 -0.0000 0.0000 -17.5431 23.5528 0.7333 2.0414 10.4391 -6.0951 12.0556 -18.0243 -1.5394 -0.0776 -20.9828 1.5936 
0.2965 7.8944 0.1903 -2.3957 1.6182 -1.3502 0.0000 -0.0000 0.0000 6.5834 -34.3349 -8.0309 -1.8507 17.5184 -0.2526 1.9185 15.3688 7.6603 -0.0000 -8.8757 0.0000 0.0000 -0.0000 0.0000 3.1802 2.1371 -0.7778 5.8891 4.2840 -1.1020 -5.6538 0.5009 -4.7258 -12.4667 14.8020 -27.3006 26.6142 27.6847 4.4357 1.2757 21.7304 2.0109 26.2701 -6.4865 19.7698 -11.5029 21.4383 -15.0349 -5.1227 -5.3746 -1.4261 -0.2816 -0.1832 -1.5727 -0.3490 -0.3108 -1.2236 -1.6203 -3.5842 1.9336 6.9471 0.4810 3.7087 32.4938 -1.5621 1.0735 -10.9341 13.1380 0.8233 -2.8666 0.6164 -5.7217 -18.8310 -0.9759 -23.7266 9.7444 16.4169 12.7575 10.4514 -0.4802 5.5715 0.0000 -0.0000 0.0000 -18.5323 24.1757 -1.1594 5.2427 16.3799 -5.3918 5.4306 -7.6844 1.2178 -9.4802 -54.5897 25.0663 
0.3535 7.8658 0.2390 -1.7717 1.0271 -1.1765 0.0000 -0.0000 0.0000 6.8986 -36.6440 -7.8686 -0.9371 30.6055 -2.2944 0.7757 5.2184 9.2483 0.0000 -7.1809 -0.0000 0.0000 -0.0000 0.0000 2.8951 2.0669 -0.7296 5.1691 4.1660 -1.3857 -6.3140 0.4663 -5.0672 -13.8905 13.9068 -25.2873 25.2995 26.6272 3.8571 0.9032 19.6597 0.5789 26.2701 -6.4865 19.7698 -11.1582 21.9031 -14.7429 -5.0735 -5.4298 -1.3869 -0.0407 -0.1846 -2.2806 -0.1246 -0.3526 -1.8339 -2.0445 -2.6033 3.9023 6.7093 0.4781 4.0664 30.5862 0.2832 5.2893 -12.5536 14.8176 0.4634 -0.9685 -1.0452 -7.2030 -18.8309 -0.9759 -23.7266 9.2243 16.2774 12.2232 10.4540 -0.4777 5.5737 0.0000 -0.0000 0.0000 -16.9467 17.9219 -1.5960 6.8462 34.2697 -2.1952 -0.5134 3.2584 5.3343 0.0000 -23.6662 -0.0000 
0.4096 7.8958 0.2633 -1.0041 0.5125 -1.0590 0.0000 -0.0000 0.0000 6.8910 -35.2186 -7.7814 -1.1040 36.6898 -3.6289 -0.2176 -1.6458 10.3880 0.0000 -7.0731 -0.0000 0.0000 -0.0000 0.0000 2.3377 2.1730 -0.5886 4.1255 4.3842 -1.4234 -6.9984 0.4243 -5.4913 -15.4535 12.0305 -22.9085 23.4724 25.1055 3.0904 2.2447 17.5704 -0.7179 26.2701 -6.4865 19.7698 -10.3105 21.7726 -13.9508 -5.0380 -5.4697 -1.3587 0.2632 -0.0643 -2.7932 0.1739 -0.2824 -2.3072 -1.9005 -2.8631 4.7912 6.5235 0.4776 4.3238 29.2650 1.8550 8.9822 -14.0106 16.2989 0.1003 0.5531 -1.5615 -8.2692 -18.8310 -0.9759 -23.7266 9.5225 16.6275 12.5088 10.4661 -0.4664 5.5835 0.0000 -0.0000 0.0000 -14.5734 9.5698 -1.0290 -1.7149 51.9297 -5.5803 -0.5206 9.7168 6.6857 -0.0000 -12.2726 0.0000 
0.4554 7.9627 0.2489 -0.2221 0.0731 -0.7557 0.0000 -0.0000 0.0000 6.8937 -32.0315 -8.2498 -1.5643 39.1248 -3.9795 -1.0208 -6.6399 10.9748 -0.0000 -7.3792 0.0000 0.0000 -0.0000 0.0000 1.3212 2.4547 -0.4803 2.1614 4.9220 -1.0453 -7.2388 0.3904 -6.1776 -15.9065 8.5544 -20.4203 21.3993 23.3062 2.2758 3.7985 17.3131 -1.4142 26.2701 -6.4865 19.7698 -9.5190 21.1977 -13.1846 -5.0403 -5.4671 -1.3605 0.7033 -0.0079 -3.1031 0.6095 -0.2377 -2.5973 -0.8177 -3.7480 4.1729 6.5470 0.4791 4.2304 29.2002 2.4186 11.6005 -16.4143 18.6751 -0.5772 2.3576 -1.4712 -9.0434 -18.8310 -0.9759 -23.7266 9.8586 16.9377 12.8359 10.5225 -0.4140 5.6295 0.0000 -0.0000 0.0000 -12.2586 0.8415 0.0694 -20.4563 62.8838 -20.3383 -0.5482 6.6816 4.4122 -0.0000 -13.1594 -0.0000 
0.4759 8.0915 0.2219 0.5950 -0.2903 -0.4071 0.0000 -0.0000 0.0000 6.5738 -27.0564 -8.8075 -1.9726 37.9979 -3.2918 -1.5112 -9.9618 10.8437 -0.0000 -7.4074 0.0000 0.0000 -0.0000 0.0000 -0.0195 2.7744 -0.4608 -0.4102 5.5478 -0.7014 -7.5857 0.3511 -6.7691 -16.0377 4.4498 -18.3147 19.2044 21.3188 1.4810 5.0328 17.2490 -0.7118 26.2701 -6.4865 19.7698 -9.3845 20.5938 -13.0147 -5.0396 -5.4680 -1.3599 1.2121 -0.0847 -2.8272 1.1229 -0.2459 -2.3734 0.8014 -4.1055 2.3951 6.5292 0.4780 4.3011 28.0970 2.1388 13.5716 -19.1700 21.2870 -1.4691 3.6933 -0.3442 -10.1616 -18.8310 -0.9758 -23.7266 9.3376 16.5674 12.3202 10.5139 -0.4220 5.6225 0.0000 -0.0000 0.0000 -10.9921 -7.6022 0.9786 -31.8228 68.0200 -29.5985 -0.4113 2.2825 2.3159 0.0000 -12.8349 -0.0000 
0.4718 8.2449 0.1937 1.4253 -0.5778 -0.0600 0.0000 -0.0000 0.0000 6.0255 -21.0383 -9.3128 -2.4307 34.5748 -1.9541 -1.7251 -12.1392 10.1367 -0.0000 -7.2593 -0.0000 0.0000 -0.0000 0.0000 -1.2979 2.9546 -0.5698 -2.8527 5.9162 -0.6009 -8.1402 0.3229 -6.6792 -17.2368 1.1970 -16.7972 16.5267 18.7841 0.6112 6.0391 16.6963 0.8438 26.2701 -6.4865 19.7698 -9.9729 20.3671 -13.5362 -5.0505 -5.4557 -1.3686 1.7054 0.0122 -2.2020 1.6347 -0.0727 -1.8714 2.2630 -3.6729 0.7269 6.2490 0.4793 4.6528 25.1741 2.3064 15.6484 -21.1154 23.0539 -2.1690 3.8513 1.3866 -10.3650 -18.8309 -0.9759 -23.7266 8.2009 15.8536 11.1871 10.5625 -0.3769 5.6622 0.0000 -0.0000 0.0000 -10.8552 -15.6267 1.6295 -26.9814 71.5906 -23.5485 -0.2814 -0.7490 1.5537 0.0000 -9.8783 -0.0000 
0.4486 8.3669 0.1831 2.2410 -0.7899 0.3271 0.0000 -0.0000 0.0000 6.1722 -14.8487 -9.7345 -3.7694 30.7979 -0.8828 -1.8687 -14.1150 9.3961 0.0000 -7.0484 -0.0000 0.0000 -0.0000 0.0000 -2.4105 2.9572 -0.6896 -4.9899 5.9490 -0.4630 -8.6039 0.3178 -6.2075 -19.2513 -1.0509 -15.4499 13.4616 15.7443 -0.2414 6.1823 16.6301 2.2080 26.2701 -6.4865 19.7698 -10.3948 19.9157 -13.8891 -5.0765 -5.4265 -1.3893 2.1897 0.3472 -1.7153 2.1363 0.2875 -1.5036 3.2744 -2.9727 -0.1745 5.8724 0.4856 5.0381 22.3487 3.6935 17.5848 -22.3470 24.1382 -2.6407 3.6137 2.6597 -8.0480 -18.8309 -0.9758 -23.7266 7.4453 15.4717 10.4292 10.6195 -0.3239 5.7088 0.0000 -0.0000 0.0000 -10.6203 -23.0753 2.5333 -17.8730 71.8516 -13.5742 -0.0526 -5.0910 0.6566 -0.0000 -8.8814 0.0000 
